# Blender 3.4.1
# www.blender.org
mtllib TEST.mtl
o stone-mountain
v 0.893551 0.480800 -0.875706
v 0.792234 0.480800 -0.817211
v 0.787284 0.480800 -0.937059
v 0.685967 0.480800 -0.878564
v 0.787284 0.480800 -1.059766
v 0.685967 0.480800 -1.001271
v 0.663185 0.436292 -0.865411
v 0.792234 0.436292 -0.790904
v 0.905027 0.437064 -0.856482
v 0.663185 0.436292 -1.014424
v 0.776181 0.436292 -1.079662
v 1.146104 1.086415 -1.024285
v 1.042234 1.086415 -0.964316
v 1.146104 1.086415 -1.144224
v 1.042234 1.086415 -1.204193
v 0.938364 1.086415 -1.024285
v 0.938364 1.086415 -1.144224
v 0.926262 1.037902 -1.151211
v 0.926262 1.037902 -1.017298
v 1.042234 1.037902 -1.218168
v 1.158206 1.037902 -1.151211
v 1.042234 1.037902 -0.950341
v 1.158206 1.037902 -1.017298
v 1.292234 0.324400 -1.440364
v 1.292234 0.368480 -1.413113
v 1.252103 0.324400 -1.417194
v 1.237882 0.368480 -1.381734
v 1.452034 0.368480 -1.136332
v 1.389402 0.368480 -1.100171
v 1.452034 0.368480 -1.320853
v 1.325204 0.368480 -1.247628
v 1.325204 0.368480 -1.137236
v 1.237882 0.368480 -1.298043
v 1.475633 0.324400 -1.334478
v 1.475633 0.324400 -1.122707
v 1.429388 0.324400 -1.096007
v 1.156491 0.620779 -1.272357
v 1.042234 0.620779 -1.338324
v 1.156491 0.620779 -1.388896
v 1.042234 0.620779 -1.454862
v 0.927977 0.620779 -1.272357
v 0.927977 0.620779 -1.388896
v 0.913157 0.574839 -1.402911
v 1.042234 0.574839 -1.477434
v 0.913157 0.574839 -1.277034
v 1.171311 0.574839 -1.402911
v 1.171311 0.574839 -1.277034
v 1.202034 0.368480 -0.729064
v 1.225633 0.324400 -0.708703
v 1.202034 0.368480 -0.703319
v 1.225633 0.324400 -0.689694
v 1.042234 0.324400 -0.583808
v 1.042234 0.368480 -0.611058
v 0.858834 0.324400 -0.689694
v 0.882434 0.368480 -0.703319
v 1.097500 0.368480 -0.789417
v 1.042234 0.368480 -0.757509
v 0.923024 0.368480 -0.826335
v 0.882434 0.368480 -0.802900
v 0.858834 0.324400 -0.763221
v 0.819410 0.284240 -1.306619
v 0.738249 0.284240 -1.259761
v 0.819410 0.284240 -1.397424
v 0.792234 0.284240 -1.413113
v 0.632434 0.284240 -1.320853
v 0.675554 0.284240 -1.111436
v 0.632434 0.284240 -1.136332
v 0.738249 0.284240 -1.147634
v 0.595892 0.250113 -1.115234
v 0.595892 0.250113 -1.341951
v 0.792234 0.250113 -1.455309
v 0.621543 0.250113 -1.100425
v 0.808400 0.250113 -1.445975
v 1.295903 0.701228 -1.011318
v 1.242195 0.701228 -0.968807
v 1.242195 0.701228 -1.042326
v 1.172234 0.701228 -0.797116
v 1.058526 0.701228 -0.862766
v 1.295903 0.701228 -0.868517
v 1.183248 0.655222 -0.783727
v 1.318513 0.655222 -0.861822
v 1.253672 0.655222 -1.055448
v 1.318513 0.655222 -1.018012
v 1.063914 0.655222 -0.852625
v 1.475633 0.324400 -1.122707
v 1.542234 0.200000 -1.084255
v 1.429388 0.324400 -1.096007
v 0.792234 0.200000 -0.651242
v 0.808400 0.250113 -1.445975
v 0.792234 0.200000 -1.517267
v 1.292234 0.200000 -0.651242
v 0.595892 0.250113 -1.115234
v 0.621543 0.250113 -1.100425
v 0.542234 0.200000 -1.084255
v 1.292234 0.200000 -1.517267
v 1.292234 0.324400 -1.440364
v 1.252103 0.324400 -1.417194
v 0.663185 0.436292 -1.014424
v 0.675554 0.284240 -1.111436
v 0.776181 0.436292 -1.079662
v 0.542234 0.200000 -0.795580
v 0.663185 0.436292 -0.865411
v 0.792234 0.436292 -0.790904
v 1.237882 0.368480 -1.381734
v 1.237882 0.368480 -1.298043
v 0.905027 0.437064 -0.856482
v 1.325204 0.368480 -1.137236
v 1.253672 0.655222 -1.055448
v 1.242195 0.701228 -1.042326
v 1.242195 0.701228 -0.968807
v 1.042234 0.200000 -1.661605
v 0.819410 0.284240 -1.306619
v 1.042234 1.037902 -1.218168
v 1.042234 0.620779 -1.338324
v 1.542234 0.200000 -1.372930
v 1.475633 0.324400 -1.334478
v 1.183248 0.655222 -0.783727
v 1.063914 0.655222 -0.852625
v 0.787284 0.480800 -1.059766
v 0.787284 0.480800 -0.937059
v 1.058526 0.701228 -0.862766
v 1.042234 0.200000 -0.506904
v 0.595892 0.250113 -1.341950
v 0.542234 0.200000 -1.372930
v 1.389402 0.368480 -1.100171
v 1.318513 0.655222 -1.018012
v 1.542234 0.200000 -0.795580
v 1.318513 0.655222 -0.861822
v 0.819410 0.284240 -1.397424
v 0.893551 0.480800 -0.875706
v 1.542234 0.100000 -1.372930
v 1.542234 0.100000 -0.795580
v 1.042234 0.100000 -0.506905
v 1.042234 0.200000 -0.506904
v 1.042234 0.200000 -1.661605
v 0.542234 0.100000 -1.372930
v 0.542234 0.100000 -0.795580
v 1.042234 0.100000 -1.661605
v 1.042234 -0.000000 -0.506905
v 0.542234 -0.000000 -0.795580
v 1.042234 0.100000 -0.506905
v 1.542234 -0.000000 -0.795580
v 1.542234 0.000000 -1.372930
v 1.042234 0.000000 -1.661605
v 0.542234 0.000000 -1.372930
v 1.042234 0.100000 -1.661605
vn -0.0000 1.0000 -0.0000
vn -0.0012 0.5088 0.8609
vn -0.7455 0.5088 0.4304
vn -0.7455 0.5089 0.4304
vn -0.0000 0.5088 0.8609
vn 0.4451 0.4556 0.7709
vn -0.0000 0.5089 0.8609
vn -0.7455 0.5088 -0.4304
vn -0.7455 0.5089 -0.4304
vn -0.4451 0.4556 -0.7709
vn -0.7456 0.5088 -0.4304
vn -0.8322 0.2768 0.4805
vn -0.8322 0.2768 -0.4805
vn -0.0000 0.2768 -0.9609
vn 0.8322 0.2768 -0.4805
vn -0.0000 0.2768 0.9609
vn 0.8322 0.2768 0.4805
vn -0.4408 0.4720 -0.7635
vn -0.0000 0.5258 -0.8506
vn -0.0000 0.5259 -0.8506
vn 0.7366 0.5258 -0.4253
vn 0.7366 0.5259 0.4253
vn 0.7367 0.5258 -0.4253
vn 0.7367 0.5258 0.4253
vn 0.7366 0.5258 0.4253
vn 0.4408 0.4720 0.7635
vn -0.8126 0.3934 -0.4301
vn -0.0000 0.4410 -0.8975
vn -0.7825 0.3984 -0.4786
vn -0.9517 0.3070 -0.0000
vn -0.7824 0.3985 -0.4786
vn -0.8126 0.3933 -0.4301
vn 0.8126 0.3934 -0.4301
vn 0.9517 0.3070 -0.0000
vn 0.7824 0.3985 -0.4786
vn 0.8126 0.3933 -0.4301
vn 0.7825 0.3984 -0.4786
vn 0.8816 0.4720 -0.0000
vn -0.0000 0.5258 0.8506
vn -0.0000 0.5259 0.8506
vn -0.7366 0.5258 0.4253
vn -0.8816 0.4720 -0.0000
vn -0.7367 0.5258 0.4253
vn -0.5446 0.7775 -0.3144
vn -0.5446 0.7775 0.3144
vn -0.0000 0.7775 -0.6288
vn -0.0000 0.7775 -0.6289
vn -0.3413 0.7308 0.5911
vn 0.3413 0.7308 -0.5911
vn 0.7864 0.4483 0.4250
vn -0.0794 0.2610 0.9621
vn 0.0607 0.2923 0.9544
vn -0.0793 0.2610 0.9621
vn 0.7569 0.4420 0.4815
vn 0.4687 0.3485 -0.8117
vn 0.7864 0.4483 -0.4250
vn 0.7569 0.4420 -0.4815
vn 0.7569 0.4420 -0.4814
vn 0.7569 0.4420 0.4814
vn -0.4957 0.1312 0.8585
vn -0.8902 0.4556 -0.0000
vn -0.4451 0.4556 0.7709
vn 0.9703 0.2420 -0.0000
vn 0.4601 0.3915 -0.7969
vn -0.4851 0.2420 -0.8403
vn 0.4851 0.2420 -0.8403
vn -0.9703 0.2420 -0.0000
vn 0.4851 0.2420 0.8403
vn -0.4408 0.4720 0.7635
vn -0.4601 0.3915 -0.7969
vn 0.4408 0.4720 -0.7635
vn -0.6825 0.7308 -0.0000
vn 0.8975 0.4411 -0.0000
vn -0.3413 0.7308 -0.5911
vn 0.4687 0.3484 0.8117
vn -0.4851 0.2420 0.8403
vn 1.0000 -0.0000 -0.0000
vn 0.5000 -0.0000 0.8660
vn -1.0000 -0.0000 -0.0000
vn -0.5000 -0.0000 0.8660
vn -0.5000 -0.0000 -0.8660
vn 0.5000 -0.0000 -0.8660
vn -0.0000 -1.0000 -0.0000
vt 0.843750 0.225000
vt 0.843750 0.225000
vt 0.843750 0.225000
vt 0.843750 0.225000
vt 0.843750 0.225000
vt 0.843750 0.225000
vt 0.843750 0.025000
vt 0.843750 0.025000
vt 0.843750 0.028470
vt 0.843750 0.025000
vt 0.843750 0.025000
vt 0.843750 0.225000
vt 0.843750 0.225000
vt 0.843750 0.225000
vt 0.843750 0.225000
vt 0.843750 0.225000
vt 0.843750 0.225000
vt 0.843750 0.025000
vt 0.718750 0.225000
vt 0.843750 0.025000
vt 0.718750 0.225000
vt 0.843750 0.025000
vt 0.843750 0.025000
vt 0.718750 0.225000
vt 0.843750 0.025000
vt 0.718750 0.225000
vt 0.843750 0.025000
vt 0.718750 0.225000
vt 0.843750 0.025000
vt 0.843750 0.225000
vt 0.843750 0.025000
vt 0.843750 0.225000
vt 0.843750 0.225000
vt 0.843750 0.225000
vt 0.843750 0.225000
vt 0.843750 0.225000
vt 0.718750 0.065215
vt 0.843750 0.225000
vt 0.843750 0.225000
vt 0.843750 0.025000
vt 0.843750 0.025000
vt 0.843750 0.025000
vt 0.843750 0.225000
vt 0.718750 0.125436
vt 0.843750 0.225000
vt 0.843750 0.225000
vt 0.843750 0.225000
vt 0.843750 0.225000
vt 0.718750 0.125436
vt 0.843750 0.225000
vt 0.843750 0.025000
vt 0.718750 0.114471
vt 0.843750 0.025000
vt 0.718750 0.114471
vt 0.843750 0.025000
vt 0.718750 0.114471
vt 0.843750 0.025000
vt 0.718750 0.114471
vt 0.843750 0.025000
vt 0.718750 0.114471
vt 0.843750 0.225000
vt 0.718750 0.065215
vt 0.843750 0.025000
vt 0.718750 0.054693
vt 0.843750 0.225000
vt 0.843750 0.025000
vt 0.718750 0.054693
vt 0.843750 0.025000
vt 0.718750 0.054693
vt 0.843750 0.225000
vt 0.843750 0.025000
vt 0.718750 0.054693
vt 0.843750 0.225000
vt 0.843750 0.225000
vt 0.718750 0.065215
vt 0.843750 0.225000
vt 0.718750 0.065215
vt 0.843750 0.225000
vt 0.718750 0.065215
vt 0.843750 0.225000
vt 0.718750 0.065215
vt 0.843750 0.025000
vt 0.718750 0.054693
vt 0.843750 0.225000
vt 0.843750 0.225000
vt 0.718750 0.045107
vt 0.843750 0.225000
vt 0.843750 0.225000
vt 0.843750 0.225000
vt 0.843750 0.225000
vt 0.843750 0.225000
vt 0.843750 0.225000
vt 0.718750 0.045107
vt 0.843750 0.025000
vt 0.843750 0.025000
vt 0.843750 0.025000
vt 0.718750 0.036961
vt 0.843750 0.025000
vt 0.843750 0.025000
vt 0.843750 0.225000
vt 0.843750 0.225000
vt 0.843750 0.225000
vt 0.843750 0.225000
vt 0.843750 0.225000
vt 0.843750 0.225000
vt 0.843750 0.025000
vt 0.843750 0.025000
vt 0.843750 0.025000
vt 0.843750 0.025000
vt 0.843750 0.025000
vt 0.718750 0.054693
vt 0.718750 0.025000
vt 0.718750 0.054693
vt 0.718750 0.025000
vt 0.718750 0.036961
vt 0.718750 0.025000
vt 0.718750 0.025000
vt 0.718750 0.036961
vt 0.718750 0.036961
vt 0.718750 0.025000
vt 0.718750 0.025000
vt 0.718750 0.054693
vt 0.718750 0.054693
vt 0.718750 0.081401
vt 0.718750 0.045107
vt 0.718750 0.081401
vt 0.718750 0.025000
vt 0.656250 0.125000
vt 0.718750 0.081401
vt 0.718750 0.081401
vt 0.718750 0.065215
vt 0.718750 0.065215
vt 0.718750 0.081585
vt 0.718750 0.065215
vt 0.718750 0.133658
vt 0.718750 0.144639
vt 0.718750 0.144639
vt 0.718750 0.025000
vt 0.718750 0.045107
vt 0.718750 0.225000
vt 0.718750 0.125436
vt 0.718750 0.025000
vt 0.656250 0.125000
vt 0.718750 0.054693
vt 0.718750 0.133658
vt 0.718750 0.133658
vt 0.718750 0.092025
vt 0.718750 0.092025
vt 0.718750 0.144639
vt 0.718750 0.025000
vt 0.718750 0.036961
vt 0.718750 0.025000
vt 0.656250 0.125000
vt 0.718750 0.065215
vt 0.718750 0.133658
vt 0.718750 0.025000
vt 0.656250 0.125000
vt 0.718750 0.133658
vt 0.718750 0.045107
vt 0.718750 0.092025
vt 0.656250 0.125000
vt 0.906250 0.125000
vt 0.656250 0.125000
vt 0.906250 0.125000
vt 0.656250 0.125000
vt 0.656250 0.125000
vt 0.656250 0.125000
vt 0.656250 0.125000
vt 0.906250 0.125000
vt 0.656250 0.125000
vt 0.906250 0.125000
vt 0.656250 0.125000
vt 0.906250 0.125000
vt 0.906250 0.125000
vt 0.906250 0.125000
vt 0.906250 0.125000
vt 0.906250 0.125000
vt 0.906250 0.125000
vt 0.906250 0.125000
vt 0.906250 0.125000
s 0
usemtl colormap.059
f 3/3/1 2/2/1 1/1/1
f 2/2/1 3/3/1 4/4/1
f 4/4/1 3/3/1 5/5/1
f 4/4/1 5/5/1 6/6/1
f 8/8/2 4/4/3 7/7/3
f 4/4/4 8/8/2 2/2/5
f 9/9/6 2/2/5 8/8/2
f 2/2/7 9/9/6 1/1/6
f 7/7/3 6/6/8 10/10/8
f 6/6/9 7/7/3 4/4/3
f 6/6/8 11/11/10 10/10/8
f 11/11/10 6/6/11 5/5/10
f 14/14/1 13/13/1 12/12/1
f 13/13/1 14/14/1 15/15/1
f 13/13/1 15/15/1 16/16/1
f 16/16/1 15/15/1 17/17/1
f 19/20/12 17/17/13 18/18/13
f 17/17/13 19/20/12 16/16/12
f 17/17/13 20/22/14 18/18/13
f 20/22/14 17/17/13 15/15/14
f 15/15/14 21/23/15 20/22/14
f 21/23/15 15/15/14 14/14/15
f 13/13/16 19/20/12 22/25/16
f 19/20/12 13/13/16 16/16/12
f 12/12/17 22/25/16 23/27/17
f 22/25/16 12/12/17 13/13/16
f 14/14/15 23/27/17 21/23/15
f 23/27/17 14/14/15 12/12/17
f 26/31/18 25/30/19 24/29/19
f 25/30/19 26/31/18 27/32/18
f 30/35/1 29/34/1 28/33/1
f 29/34/1 30/35/1 25/30/1
f 29/34/1 25/30/1 31/36/1
f 29/34/1 31/36/1 32/38/1
f 31/36/1 25/30/1 33/39/1
f 33/39/1 25/30/1 27/32/1
f 24/29/20 30/35/21 34/40/21
f 30/35/21 24/29/19 25/30/19
f 30/35/21 35/41/22 34/40/23
f 35/41/24 30/35/21 28/33/25
f 28/33/25 36/42/26 35/41/25
f 36/42/26 28/33/22 29/34/26
f 39/46/1 38/45/1 37/43/1
f 38/45/1 39/46/1 40/47/1
f 38/45/1 40/47/1 41/48/1
f 41/48/1 40/47/1 42/50/1
f 42/50/27 44/53/28 43/51/29
f 44/53/28 42/50/27 40/47/28
f 45/55/30 42/50/27 43/51/31
f 42/50/32 45/55/30 41/48/30
f 39/46/33 47/59/34 46/57/35
f 47/59/34 39/46/36 37/43/34
f 44/53/28 39/46/33 46/57/37
f 39/46/33 44/53/28 40/47/28
f 50/65/25 49/63/38 48/61/38
f 49/63/38 50/65/25 51/66/24
f 51/66/22 53/70/39 52/68/39
f 53/70/39 51/66/25 50/65/25
f 52/68/40 55/73/41 54/71/41
f 55/73/41 52/68/39 53/70/39
f 48/61/1 53/70/1 50/65/1
f 53/70/1 48/61/1 56/74/1
f 53/70/1 56/74/1 57/76/1
f 53/70/1 57/76/1 58/78/1
f 53/70/1 58/78/1 55/73/1
f 55/73/1 58/78/1 59/80/1
f 60/82/42 55/73/41 59/80/42
f 55/73/41 60/82/42 54/71/43
f 63/87/1 62/85/1 61/84/1
f 62/85/1 63/87/1 64/88/1
f 62/85/1 64/88/1 65/89/1
f 62/85/1 65/89/1 66/90/1
f 66/90/1 65/89/1 67/91/1
f 66/90/1 68/92/1 62/85/1
f 65/89/44 69/94/45 67/91/45
f 69/94/45 65/89/44 70/95/44
f 71/96/46 65/89/44 64/88/47
f 65/89/44 71/96/47 70/95/44
f 67/91/45 72/98/48 66/90/48
f 72/98/48 67/91/45 69/94/45
f 73/99/49 64/88/47 63/87/49
f 64/88/47 73/99/49 71/96/47
f 76/102/1 75/101/1 74/100/1
f 77/103/1 74/100/1 75/101/1
f 77/103/1 75/101/1 78/104/1
f 74/100/1 77/103/1 79/105/1
f 81/107/50 77/103/51 80/106/52
f 77/103/53 81/107/50 79/105/54
f 76/102/55 83/109/56 82/108/55
f 83/109/56 76/102/55 74/100/57
f 74/100/58 81/107/50 83/109/56
f 81/107/50 74/100/58 79/105/59
f 77/103/53 84/110/60 80/106/52
f 84/110/60 77/103/53 78/104/60
f 87/113/26 86/112/26 85/111/26
f 88/114/42 54/72/42 60/83/42
f 90/116/49 71/97/49 89/115/49
f 91/117/38 49/64/38 51/67/38
f 94/120/48 93/119/48 92/118/48
f 97/123/18 96/122/18 95/121/18
f 98/124/10 93/119/10 94/120/10
f 93/119/10 98/124/10 99/125/10
f 99/125/10 98/124/10 68/93/10
f 68/93/10 98/124/10 100/126/10
f 101/127/61 98/124/61 94/120/61
f 98/124/61 101/127/61 102/129/61
f 103/130/62 101/127/62 88/114/62
f 101/127/62 103/130/62 102/129/62
f 46/58/34 97/123/34 95/121/34
f 97/123/34 46/58/34 104/131/34
f 104/131/34 46/58/34 47/60/34
f 104/131/34 47/60/34 105/132/34
f 106/133/6 59/81/6 58/79/6
f 59/81/6 106/133/6 103/130/6
f 103/130/6 60/83/6 59/81/6
f 60/83/6 103/130/6 88/114/6
f 21/24/63 107/134/63 31/37/63
f 107/134/63 21/24/63 23/28/63
f 107/134/63 23/28/63 108/135/63
f 108/135/63 23/28/63 109/136/63
f 109/136/63 23/28/63 110/137/63
f 111/138/64 46/58/64 95/121/64
f 46/58/64 111/138/64 44/54/64
f 18/19/65 112/139/65 62/86/65
f 112/139/65 18/19/65 45/56/65
f 45/56/65 18/19/65 41/49/65
f 113/140/65 41/49/65 18/19/65
f 41/49/65 113/140/65 114/141/65
f 116/144/38 86/112/38 115/142/38
f 86/112/38 116/144/38 85/111/38
f 117/145/60 49/64/60 91/117/60
f 49/64/60 117/145/60 48/62/60
f 118/146/60 48/62/60 117/145/60
f 48/62/60 118/146/60 56/75/60
f 47/60/66 31/37/66 105/132/66
f 31/37/66 47/60/66 21/24/66
f 21/24/66 47/60/66 37/44/66
f 21/24/66 37/44/66 114/141/66
f 21/24/66 114/141/66 113/140/66
f 68/93/67 18/19/67 62/86/67
f 18/19/67 68/93/67 19/21/67
f 19/21/67 68/93/67 100/126/67
f 19/21/67 100/126/67 119/147/67
f 19/21/67 119/147/67 120/148/67
f 23/28/68 121/149/68 110/137/68
f 22/26/68 121/149/68 23/28/68
f 57/77/68 121/149/68 22/26/68
f 121/149/68 57/77/68 118/146/68
f 118/146/68 57/77/68 56/75/68
f 52/69/69 88/114/69 122/150/69
f 88/114/69 52/69/69 54/72/69
f 51/67/26 122/150/26 91/117/26
f 122/150/26 51/67/26 52/69/26
f 43/52/70 111/138/70 90/116/70
f 111/138/70 43/52/70 44/54/70
f 96/122/71 115/142/71 95/121/71
f 115/142/71 96/122/71 116/144/71
f 123/151/72 94/120/72 92/118/72
f 94/120/72 123/151/72 124/152/72
f 108/135/55 125/154/55 107/134/55
f 126/155/55 125/154/55 108/135/55
f 126/155/55 87/113/55 125/154/55
f 87/113/55 126/155/55 86/112/55
f 126/155/73 127/156/73 86/112/73
f 127/156/73 126/155/73 128/158/73
f 89/115/30 43/52/30 90/116/30
f 43/52/30 89/115/30 129/159/30
f 43/52/30 129/159/30 45/56/30
f 45/56/30 129/159/30 112/139/30
f 90/116/74 123/151/74 71/97/74
f 123/151/74 90/116/74 124/152/74
f 128/158/75 91/117/75 127/156/75
f 91/117/75 128/158/75 117/145/75
f 22/26/76 58/79/76 57/77/76
f 58/79/76 22/26/76 106/133/76
f 106/133/76 22/26/76 130/160/76
f 130/160/76 22/26/76 120/148/76
f 120/148/76 22/26/76 19/21/76
f 127/157/77 131/161/77 115/143/77
f 131/161/77 127/157/77 132/163/77
f 127/157/78 133/165/78 132/163/78
f 133/165/78 127/157/78 134/166/78
f 115/143/1 134/166/1 127/157/1
f 134/166/1 115/143/1 135/167/1
f 134/166/1 135/167/1 101/128/1
f 101/128/1 135/167/1 124/153/1
f 137/170/79 124/153/79 136/168/79
f 124/153/79 137/170/79 101/128/79
f 134/166/80 137/170/80 133/165/80
f 137/170/80 134/166/80 101/128/80
f 124/153/81 138/172/81 136/168/81
f 138/172/81 124/153/81 135/167/81
f 135/167/82 131/161/82 138/172/82
f 131/161/82 135/167/82 115/143/82
f 141/175/80 140/174/80 139/173/80
f 140/174/80 141/175/80 137/171/80
f 132/164/78 139/173/78 142/176/78
f 139/173/78 132/164/78 141/175/78
f 132/164/77 143/177/77 131/162/77
f 143/177/77 132/164/77 142/176/77
f 139/173/83 143/177/83 142/176/83
f 143/177/83 139/173/83 144/178/83
f 144/178/83 139/173/83 140/174/83
f 144/178/83 140/174/83 145/179/83
f 146/180/82 143/177/82 144/178/82
f 143/177/82 146/180/82 131/162/82
f 136/169/81 144/178/81 145/179/81
f 144/178/81 136/169/81 146/180/81
f 140/174/79 136/169/79 145/179/79
f 136/169/79 140/174/79 137/171/79
f 3/3/1 2/2/1 1/1/1
f 2/2/1 3/3/1 4/4/1
f 4/4/1 3/3/1 5/5/1
f 4/4/1 5/5/1 6/6/1
f 8/8/2 4/4/3 7/7/3
f 4/4/4 8/8/2 2/2/5
f 9/9/6 2/2/5 8/8/2
f 2/2/7 9/9/6 1/1/6
f 7/7/3 6/6/8 10/10/8
f 6/6/9 7/7/3 4/4/3
f 6/6/8 11/11/10 10/10/8
f 11/11/10 6/6/11 5/5/10
f 14/14/1 13/13/1 12/12/1
f 13/13/1 14/14/1 15/15/1
f 13/13/1 15/15/1 16/16/1
f 16/16/1 15/15/1 17/17/1
f 19/20/12 17/17/13 18/18/13
f 17/17/13 19/20/12 16/16/12
f 17/17/13 20/22/14 18/18/13
f 20/22/14 17/17/13 15/15/14
f 15/15/14 21/23/15 20/22/14
f 21/23/15 15/15/14 14/14/15
f 13/13/16 19/20/12 22/25/16
f 19/20/12 13/13/16 16/16/12
f 12/12/17 22/25/16 23/27/17
f 22/25/16 12/12/17 13/13/16
f 14/14/15 23/27/17 21/23/15
f 23/27/17 14/14/15 12/12/17
f 26/31/18 25/30/19 24/29/19
f 25/30/19 26/31/18 27/32/18
f 30/35/1 29/34/1 28/33/1
f 29/34/1 30/35/1 25/30/1
f 29/34/1 25/30/1 31/36/1
f 29/34/1 31/36/1 32/38/1
f 31/36/1 25/30/1 33/39/1
f 33/39/1 25/30/1 27/32/1
f 24/29/20 30/35/21 34/40/21
f 30/35/21 24/29/19 25/30/19
f 30/35/21 35/41/22 34/40/23
f 35/41/24 30/35/21 28/33/25
f 28/33/25 36/42/26 35/41/25
f 36/42/26 28/33/22 29/34/26
f 39/46/1 38/45/1 37/43/1
f 38/45/1 39/46/1 40/47/1
f 38/45/1 40/47/1 41/48/1
f 41/48/1 40/47/1 42/50/1
f 42/50/27 44/53/28 43/51/29
f 44/53/28 42/50/27 40/47/28
f 45/55/30 42/50/27 43/51/31
f 42/50/32 45/55/30 41/48/30
f 39/46/33 47/59/34 46/57/35
f 47/59/34 39/46/36 37/43/34
f 44/53/28 39/46/33 46/57/37
f 39/46/33 44/53/28 40/47/28
f 50/65/25 49/63/38 48/61/38
f 49/63/38 50/65/25 51/66/24
f 51/66/22 53/70/39 52/68/39
f 53/70/39 51/66/25 50/65/25
f 52/68/40 55/73/41 54/71/41
f 55/73/41 52/68/39 53/70/39
f 48/61/1 53/70/1 50/65/1
f 53/70/1 48/61/1 56/74/1
f 53/70/1 56/74/1 57/76/1
f 53/70/1 57/76/1 58/78/1
f 53/70/1 58/78/1 55/73/1
f 55/73/1 58/78/1 59/80/1
f 60/82/42 55/73/41 59/80/42
f 55/73/41 60/82/42 54/71/43
f 63/87/1 62/85/1 61/84/1
f 62/85/1 63/87/1 64/88/1
f 62/85/1 64/88/1 65/89/1
f 62/85/1 65/89/1 66/90/1
f 66/90/1 65/89/1 67/91/1
f 66/90/1 68/92/1 62/85/1
f 65/89/44 69/94/45 67/91/45
f 69/94/45 65/89/44 70/95/44
f 71/96/46 65/89/44 64/88/47
f 65/89/44 71/96/47 70/95/44
f 67/91/45 72/98/48 66/90/48
f 72/98/48 67/91/45 69/94/45
f 73/99/49 64/88/47 63/87/49
f 64/88/47 73/99/49 71/96/47
f 76/102/1 75/101/1 74/100/1
f 77/103/1 74/100/1 75/101/1
f 77/103/1 75/101/1 78/104/1
f 74/100/1 77/103/1 79/105/1
f 81/107/50 77/103/51 80/106/52
f 77/103/53 81/107/50 79/105/54
f 76/102/55 83/109/56 82/108/55
f 83/109/56 76/102/55 74/100/57
f 74/100/58 81/107/50 83/109/56
f 81/107/50 74/100/58 79/105/59
f 77/103/53 84/110/60 80/106/52
f 84/110/60 77/103/53 78/104/60
f 87/113/26 86/112/26 85/111/26
f 88/114/42 54/72/42 60/83/42
f 90/116/49 71/97/49 89/115/49
f 91/117/38 49/64/38 51/67/38
f 94/120/48 93/119/48 92/118/48
f 97/123/18 96/122/18 95/121/18
f 98/124/10 93/119/10 94/120/10
f 93/119/10 98/124/10 99/125/10
f 99/125/10 98/124/10 68/93/10
f 68/93/10 98/124/10 100/126/10
f 101/127/61 98/124/61 94/120/61
f 98/124/61 101/127/61 102/129/61
f 103/130/62 101/127/62 88/114/62
f 101/127/62 103/130/62 102/129/62
f 46/58/34 97/123/34 95/121/34
f 97/123/34 46/58/34 104/131/34
f 104/131/34 46/58/34 47/60/34
f 104/131/34 47/60/34 105/132/34
f 106/133/6 59/81/6 58/79/6
f 59/81/6 106/133/6 103/130/6
f 103/130/6 60/83/6 59/81/6
f 60/83/6 103/130/6 88/114/6
f 21/24/63 107/134/63 31/37/63
f 107/134/63 21/24/63 23/28/63
f 107/134/63 23/28/63 108/135/63
f 108/135/63 23/28/63 109/136/63
f 109/136/63 23/28/63 110/137/63
f 111/138/64 46/58/64 95/121/64
f 46/58/64 111/138/64 44/54/64
f 18/19/65 112/139/65 62/86/65
f 112/139/65 18/19/65 45/56/65
f 45/56/65 18/19/65 41/49/65
f 113/140/65 41/49/65 18/19/65
f 41/49/65 113/140/65 114/141/65
f 116/144/38 86/112/38 115/142/38
f 86/112/38 116/144/38 85/111/38
f 117/145/60 49/64/60 91/117/60
f 49/64/60 117/145/60 48/62/60
f 118/146/60 48/62/60 117/145/60
f 48/62/60 118/146/60 56/75/60
f 47/60/66 31/37/66 105/132/66
f 31/37/66 47/60/66 21/24/66
f 21/24/66 47/60/66 37/44/66
f 21/24/66 37/44/66 114/141/66
f 21/24/66 114/141/66 113/140/66
f 68/93/67 18/19/67 62/86/67
f 18/19/67 68/93/67 19/21/67
f 19/21/67 68/93/67 100/126/67
f 19/21/67 100/126/67 119/147/67
f 19/21/67 119/147/67 120/148/67
f 23/28/68 121/149/68 110/137/68
f 22/26/68 121/149/68 23/28/68
f 57/77/68 121/149/68 22/26/68
f 121/149/68 57/77/68 118/146/68
f 118/146/68 57/77/68 56/75/68
f 52/69/69 88/114/69 122/150/69
f 88/114/69 52/69/69 54/72/69
f 51/67/26 122/150/26 91/117/26
f 122/150/26 51/67/26 52/69/26
f 43/52/70 111/138/70 90/116/70
f 111/138/70 43/52/70 44/54/70
f 96/122/71 115/142/71 95/121/71
f 115/142/71 96/122/71 116/144/71
f 123/151/72 94/120/72 92/118/72
f 94/120/72 123/151/72 124/152/72
f 108/135/55 125/154/55 107/134/55
f 126/155/55 125/154/55 108/135/55
f 126/155/55 87/113/55 125/154/55
f 87/113/55 126/155/55 86/112/55
f 126/155/73 127/156/73 86/112/73
f 127/156/73 126/155/73 128/158/73
f 89/115/30 43/52/30 90/116/30
f 43/52/30 89/115/30 129/159/30
f 43/52/30 129/159/30 45/56/30
f 45/56/30 129/159/30 112/139/30
f 90/116/74 123/151/74 71/97/74
f 123/151/74 90/116/74 124/152/74
f 128/158/75 91/117/75 127/156/75
f 91/117/75 128/158/75 117/145/75
f 22/26/76 58/79/76 57/77/76
f 58/79/76 22/26/76 106/133/76
f 106/133/76 22/26/76 130/160/76
f 130/160/76 22/26/76 120/148/76
f 120/148/76 22/26/76 19/21/76
f 127/157/77 131/161/77 115/143/77
f 131/161/77 127/157/77 132/163/77
f 127/157/78 133/165/78 132/163/78
f 133/165/78 127/157/78 134/166/78
f 115/143/1 134/166/1 127/157/1
f 134/166/1 115/143/1 135/167/1
f 134/166/1 135/167/1 101/128/1
f 101/128/1 135/167/1 124/153/1
f 137/170/79 124/153/79 136/168/79
f 124/153/79 137/170/79 101/128/79
f 134/166/80 137/170/80 133/165/80
f 137/170/80 134/166/80 101/128/80
f 124/153/81 138/172/81 136/168/81
f 138/172/81 124/153/81 135/167/81
f 135/167/82 131/161/82 138/172/82
f 131/161/82 135/167/82 115/143/82
f 141/175/80 140/174/80 139/173/80
f 140/174/80 141/175/80 137/171/80
f 132/164/78 139/173/78 142/176/78
f 139/173/78 132/164/78 141/175/78
f 132/164/77 143/177/77 131/162/77
f 143/177/77 132/164/77 142/176/77
f 139/173/83 143/177/83 142/176/83
f 143/177/83 139/173/83 144/178/83
f 144/178/83 139/173/83 140/174/83
f 144/178/83 140/174/83 145/179/83
f 146/180/82 143/177/82 144/178/82
f 143/177/82 146/180/82 131/162/82
f 136/169/81 144/178/81 145/179/81
f 144/178/81 136/169/81 146/180/81
f 140/174/79 136/169/79 145/179/79
f 136/169/79 140/174/79 137/171/79
